<?xml version="1.0" standalone="no"?>
<!DOCTYPE svg PUBLIC "-//W3C//DTD SVG 20010904//EN"
 "http://www.w3.org/TR/2001/REC-SVG-20010904/DTD/svg10.dtd">
<svg version="1.0" xmlns="http://www.w3.org/2000/svg"
 width="512.000000pt" height="512.000000pt" viewBox="0 0 512.000000 512.000000"
 preserveAspectRatio="xMidYMid meet">

<g transform="translate(0.000000,512.000000) scale(0.100000,-0.100000)"
fill="#ffffff" stroke="none">
<path d="M4180 4974 c-280 -50 -286 -53 -283 -132 1 -47 1 -47 -65 -100 -37
-28 -84 -57 -106 -63 -30 -8 -137 -3 -467 21 -464 34 -515 33 -651 -11 -152
-50 -210 -91 -408 -284 -823 -804 -800 -780 -800 -818 0 -76 120 -157 244
-165 112 -7 154 14 414 209 l225 169 40 -36 c50 -46 129 -82 203 -94 64 -11
93 -7 389 45 242 42 295 43 428 8 86 -23 122 -27 232 -27 174 1 300 35 432
120 29 19 55 34 57 34 2 0 7 -19 11 -42 8 -47 44 -88 77 -88 36 0 490 80 520
91 58 23 58 20 -46 616 -91 519 -97 549 -121 571 -15 12 -38 22 -53 21 -15 -1
-137 -21 -272 -45z m290 -584 c68 -385 75 -436 61 -442 -16 -7 -304 -59 -307
-55 -7 8 -155 889 -150 894 13 13 311 59 315 49 3 -6 39 -207 81 -446z m-486
-64 c44 -250 48 -287 35 -302 -31 -38 -161 -112 -245 -140 -123 -40 -262 -40
-411 -1 -144 38 -211 36 -518 -18 -283 -49 -307 -49 -392 1 -37 21 -91 80 -82
88 2 2 139 27 304 55 165 29 315 57 333 62 84 27 65 149 -24 149 -46 0 -720
-117 -756 -131 -38 -15 -53 -58 -40 -111 6 -23 10 -43 9 -44 -1 -1 -103 -76
-226 -168 -123 -92 -235 -172 -248 -177 -30 -11 -93 -12 -111 -1 -16 11 843
851 913 892 65 39 187 78 267 85 37 4 231 -6 473 -25 226 -17 431 -28 457 -25
52 7 156 53 177 78 7 10 19 17 25 17 7 0 30 -106 60 -284z"/>
<path d="M2370 3461 c-424 -90 -730 -467 -730 -901 0 -507 413 -920 920 -920
507 0 920 413 920 920 0 583 -540 1021 -1110 901z m415 -175 c242 -79 420
-256 502 -501 24 -71 27 -96 27 -220 1 -120 -2 -151 -22 -215 -82 -261 -261
-440 -522 -522 -64 -20 -95 -23 -215 -22 -124 0 -149 3 -220 27 -126 42 -218
99 -309 191 -162 163 -233 344 -223 571 9 200 81 362 221 500 114 112 231 177
380 211 98 22 282 13 381 -20z"/>
<path d="M2219 3061 c-18 -14 -24 -29 -24 -61 0 -69 23 -80 163 -80 97 0 123
-3 159 -21 24 -12 48 -30 54 -40 9 -18 4 -19 -160 -19 -151 0 -171 -2 -192
-19 -18 -14 -24 -29 -24 -61 0 -32 6 -47 24 -61 21 -17 41 -19 192 -19 93 0
169 -4 169 -8 0 -14 -54 -60 -83 -71 -16 -6 -79 -11 -140 -11 -116 -1 -133 -6
-155 -47 -23 -42 -14 -65 46 -123 341 -328 401 -380 434 -380 47 0 78 31 78
78 0 34 -10 46 -142 173 l-143 136 57 17 c97 28 192 121 213 209 7 26 10 27
65 27 32 0 66 3 75 6 25 10 47 62 40 95 -10 43 -40 59 -110 59 l-60 0 -17 40
-17 40 74 0 c40 0 81 3 90 6 25 10 47 62 40 95 -13 58 -19 59 -366 59 -296 0
-318 -1 -340 -19z"/>
<path d="M3370 1691 c-57 -18 -115 -57 -319 -210 l-214 -161 -40 36 c-50 46
-129 82 -203 94 -64 11 -93 7 -389 -45 -242 -42 -295 -43 -428 -8 -86 23 -123
27 -232 27 -173 0 -299 -35 -432 -120 -29 -19 -55 -34 -57 -34 -2 0 -7 19 -11
42 -8 47 -44 88 -77 88 -36 0 -490 -80 -520 -91 -58 -23 -58 -20 46 -616 91
-519 97 -549 121 -570 15 -13 34 -23 43 -23 9 0 132 20 272 45 291 51 296 54
293 133 -1 47 -1 47 65 100 37 28 84 57 106 63 30 8 137 3 467 -21 470 -34
517 -33 658 15 153 52 203 87 396 275 783 763 805 786 805 823 0 47 -34 85
-112 127 -52 28 -75 34 -138 37 -41 1 -86 -1 -100 -6z m138 -159 c16 -11 -843
-851 -913 -893 -63 -36 -183 -76 -261 -84 -36 -4 -223 6 -474 25 -228 17 -436
28 -462 25 -52 -7 -156 -53 -177 -78 -7 -10 -19 -17 -25 -17 -7 0 -30 106 -60
284 -42 239 -47 287 -36 301 32 39 162 113 246 141 123 40 263 41 409 1 142
-39 214 -36 521 18 281 49 306 49 387 1 40 -23 95 -82 86 -90 -2 -2 -139 -27
-304 -55 -165 -29 -315 -57 -333 -62 -85 -27 -65 -149 25 -149 46 0 719 117
755 131 38 15 53 58 40 111 -6 23 -10 43 -9 44 1 1 103 76 226 168 123 93 234
172 245 176 27 11 97 12 114 2z m-2608 -309 c0 -5 34 -205 76 -446 42 -241 74
-441 70 -444 -3 -3 -76 -18 -161 -33 l-155 -27 -5 31 c-53 289 -151 862 -148
865 3 4 281 58 311 60 6 1 12 -2 12 -6z"/>
</g>
</svg>
