<?xml version="1.0" standalone="no"?>
<!DOCTYPE svg PUBLIC "-//W3C//DTD SVG 20010904//EN"
 "http://www.w3.org/TR/2001/REC-SVG-20010904/DTD/svg10.dtd">
<svg version="1.0" xmlns="http://www.w3.org/2000/svg"
 width="512.000000pt" height="512.000000pt" viewBox="0 0 512.000000 512.000000"
 preserveAspectRatio="xMidYMid meet">

<g transform="translate(0.000000,512.000000) scale(0.100000,-0.100000)"
fill="#ffffff" stroke="none">
<path d="M2286 4834 c-507 -69 -987 -330 -1307 -712 -227 -272 -384 -589 -452
-917 -28 -133 -47 -298 -47 -414 l-1 -76 -59 -34 c-121 -69 -238 -215 -282
-351 -26 -81 -35 -237 -19 -323 16 -83 89 -230 146 -295 95 -107 229 -182 375
-208 108 -19 323 -18 365 2 66 31 65 22 65 623 0 582 -1 589 -51 625 -19 13
-51 16 -176 16 -116 0 -153 3 -153 13 1 69 24 273 40 355 177 895 994 1538
1905 1499 949 -41 1707 -772 1785 -1722 5 -66 10 -126 10 -132 0 -10 -37 -13
-153 -13 -125 0 -157 -3 -176 -16 -50 -36 -51 -43 -51 -625 0 -602 -1 -592 66
-624 27 -13 63 -16 172 -15 l137 2 -1 -129 c-1 -214 -52 -341 -189 -478 -86
-86 -154 -128 -270 -166 -68 -22 -83 -23 -521 -27 l-452 -3 -12 50 c-8 33 -25
66 -52 96 -64 72 -91 77 -445 73 -285 -3 -300 -4 -339 -25 -51 -27 -90 -72
-105 -121 -6 -23 -9 -100 -7 -198 3 -152 4 -163 28 -197 14 -21 43 -50 64 -65
l39 -27 342 0 341 0 43 28 c48 32 77 74 92 135 l11 42 437 0 c387 0 446 2 527
19 177 37 318 115 446 249 171 179 238 364 238 657 l0 144 63 37 c94 57 189
159 237 257 58 120 73 190 67 317 -6 123 -29 207 -84 298 -50 83 -146 179
-222 222 l-60 35 -1 76 c0 196 -44 451 -110 644 -258 757 -915 1297 -1703
1400 -143 18 -404 18 -541 -1z m-1436 -2699 l0 -425 -90 0 c-148 0 -269 57
-350 164 -129 171 -117 395 31 551 87 92 186 133 327 134 l82 1 0 -425z m3626
411 c77 -20 148 -63 203 -121 201 -213 140 -548 -124 -675 -63 -31 -80 -35
-177 -38 l-108 -4 0 426 0 426 78 0 c42 0 100 -6 128 -14z m-1706 -1961 l0
-105 -265 0 -265 0 0 105 0 105 265 0 265 0 0 -105z"/>
<path d="M2430 3779 c-490 -57 -891 -411 -1011 -893 -29 -115 -36 -341 -15
-462 21 -120 56 -230 105 -328 l40 -79 -56 -293 c-56 -289 -57 -294 -40 -329
22 -46 73 -70 120 -56 18 5 136 54 263 109 l232 101 62 -26 c34 -13 106 -36
159 -50 85 -23 115 -26 271 -26 157 0 185 2 271 25 310 84 537 243 705 494
142 213 202 434 191 703 -23 581 -462 1044 -1052 1111 -102 11 -139 11 -245
-1z m393 -243 c500 -149 790 -650 667 -1155 -82 -337 -352 -607 -696 -697 -83
-22 -121 -26 -234 -26 -152 -1 -267 23 -394 81 -38 17 -82 31 -97 31 -16 0
-106 -34 -200 -75 -95 -41 -174 -74 -175 -72 -2 2 15 99 38 217 l41 214 -47
88 c-137 256 -162 522 -71 787 95 278 320 499 609 596 111 37 167 44 326 41
120 -3 160 -8 233 -30z"/>
<path d="M1973 2918 c-57 -28 -67 -122 -17 -169 l26 -24 578 0 578 0 26 24
c51 48 40 142 -20 170 -33 15 -1139 14 -1171 -1z"/>
<path d="M1983 2495 c-33 -14 -63 -59 -63 -95 0 -37 30 -81 65 -96 53 -22 574
-20 620 2 31 14 65 64 65 94 0 30 -34 80 -65 94 -46 22 -572 23 -622 1z"/>
</g>
</svg>
