<?xml version="1.0" standalone="no"?>
<!DOCTYPE svg PUBLIC "-//W3C//DTD SVG 20010904//EN"
 "http://www.w3.org/TR/2001/REC-SVG-20010904/DTD/svg10.dtd">
<svg version="1.0" xmlns="http://www.w3.org/2000/svg"
 width="512.000000pt" height="512.000000pt" viewBox="0 0 512.000000 512.000000"
 preserveAspectRatio="xMidYMid meet">

<g transform="translate(0.000000,512.000000) scale(0.100000,-0.100000)"
fill="#ffffff" stroke="none">
<path d="M2350 5110 c-239 -30 -464 -98 -680 -207 l-145 -73 -50 22 -50 23
-605 0 c-596 0 -606 0 -651 -21 -58 -27 -116 -85 -143 -143 -16 -36 -21 -65
-21 -136 0 -78 4 -97 27 -141 28 -54 77 -103 131 -130 20 -11 71 -20 140 -24
93 -6 111 -11 132 -30 34 -32 34 -88 0 -120 -21 -20 -39 -24 -127 -30 -57 -4
-119 -14 -139 -22 -53 -23 -107 -75 -137 -132 -23 -44 -27 -63 -27 -141 0
-105 20 -159 80 -220 72 -72 104 -80 332 -83 l202 -3 -4 -27 c-40 -243 -32
-525 20 -758 51 -226 182 -522 310 -699 35 -49 366 -477 735 -950 l671 -860
-403 -5 c-222 -3 -411 -9 -420 -13 -67 -33 -61 -140 9 -176 16 -8 329 -11
1113 -11 925 0 1095 2 1119 14 28 15 51 53 51 87 0 28 -26 75 -47 85 -10 5
-240 11 -511 14 l-493 5 223 286 223 286 23 -48 c30 -64 95 -126 162 -158 l55
-26 710 0 710 0 56 26 c71 33 125 87 158 158 22 48 26 69 26 151 0 82 -4 103
-26 151 -34 71 -87 125 -158 157 -45 21 -77 27 -167 32 -126 7 -156 20 -181
77 -19 48 -10 92 27 128 29 28 36 29 149 36 96 5 129 11 172 31 69 32 125 88
158 158 22 47 26 68 26 150 0 82 -4 103 -26 151 -33 71 -87 125 -158 158 l-56
26 -307 3 -306 3 59 116 c88 176 148 353 185 555 25 135 30 442 10 590 -63
449 -247 819 -566 1139 -301 302 -673 491 -1090 554 -127 19 -407 27 -510 15z
m375 -200 c413 -40 787 -214 1078 -503 288 -286 456 -620 513 -1020 23 -161
16 -427 -16 -582 -40 -203 -133 -438 -234 -594 l-46 -71 -328 0 -328 0 90 93
c195 199 312 434 352 707 95 656 -342 1275 -999 1411 -142 29 -352 29 -494 0
-501 -104 -881 -485 -990 -991 -25 -118 -25 -372 0 -490 88 -407 350 -734 722
-902 151 -68 322 -108 460 -108 39 0 74 -3 78 -6 3 -4 -3 -24 -13 -45 -48 -94
-63 -257 -35 -378 36 -151 146 -293 281 -364 79 -40 174 -67 246 -67 26 0 49
-4 53 -10 6 -10 -540 -715 -555 -715 -9 0 -1124 1422 -1371 1747 -150 197
-217 312 -285 489 -148 382 -153 836 -15 1224 199 559 668 986 1239 1129 199
50 393 65 597 46z m-1501 -314 c-232 -216 -430 -516 -525 -796 l-34 -100 -203
0 -204 0 -29 29 c-33 34 -39 83 -14 131 17 34 27 37 144 44 185 12 301 122
301 286 0 164 -114 272 -300 285 -118 9 -128 11 -145 45 -25 48 -19 97 14 131
l29 29 529 0 528 0 -91 -84z m1437 -427 c481 -48 860 -401 943 -875 99 -563
-281 -1112 -844 -1218 -103 -20 -294 -21 -394 -1 -484 92 -840 504 -863 996
-19 407 195 783 557 977 150 81 271 114 481 131 9 0 63 -4 120 -10z m2219
-2264 c58 -58 49 -179 -16 -222 -21 -13 -55 -19 -138 -23 -91 -5 -121 -10
-167 -32 -201 -92 -249 -357 -94 -513 63 -63 132 -88 261 -95 125 -6 156 -20
180 -75 30 -74 6 -157 -56 -187 -32 -17 -86 -18 -690 -18 -632 0 -656 1 -687
20 -46 27 -60 55 -71 137 -25 177 -136 282 -323 303 -95 11 -140 24 -189 55
-117 74 -178 203 -167 350 9 117 60 207 153 271 94 65 57 63 1061 61 l913 -2
30 -30z"/>
<path d="M2495 3916 c-30 -30 -40 -67 -28 -102 15 -46 53 -65 140 -74 103 -11
152 -24 234 -66 197 -99 324 -291 345 -520 6 -68 11 -83 35 -106 54 -55 147
-25 164 51 9 40 -12 188 -36 262 -80 243 -252 428 -484 523 -80 32 -199 56
-280 56 -56 0 -69 -4 -90 -24z"/>
<path d="M2084 3786 c-68 -30 -85 -103 -36 -157 22 -24 36 -31 65 -31 93 0
140 96 80 161 -34 37 -68 45 -109 27z"/>
<path d="M1095 191 c-64 -27 -81 -110 -32 -158 60 -61 162 -19 162 67 0 66
-72 116 -130 91z"/>
</g>
</svg>
