<?xml version="1.0" standalone="no"?>
<!DOCTYPE svg PUBLIC "-//W3C//DTD SVG 20010904//EN"
 "http://www.w3.org/TR/2001/REC-SVG-20010904/DTD/svg10.dtd">
<svg version="1.0" xmlns="http://www.w3.org/2000/svg"
 width="512.000000pt" height="512.000000pt" viewBox="0 0 512.000000 512.000000"
 preserveAspectRatio="xMidYMid meet">

<g transform="translate(0.000000,512.000000) scale(0.100000,-0.100000)"
fill="#ffffff" stroke="none">
<path d="M400 4867 c-49 -16 -133 -102 -148 -153 -18 -60 -18 -4248 0 -4308
16 -55 99 -138 154 -154 32 -9 443 -12 1775 -12 1475 0 1747 2 1824 15 567 92
952 625 860 1190 -36 224 -138 418 -304 577 -98 95 -149 132 -250 183 l-71 36
0 1216 c0 910 -3 1226 -12 1255 -6 22 -31 62 -55 88 -78 87 96 80 -1937 79
-1283 -1 -1811 -4 -1836 -12z m3655 -172 l25 -24 0 -1189 0 -1190 -42 11 c-24
6 -115 11 -203 10 -172 0 -238 -12 -382 -69 -255 -100 -477 -322 -577 -577
-128 -323 -87 -691 107 -976 43 -65 171 -196 241 -247 l58 -44 -1416 0 -1417
0 -24 25 -25 24 0 2111 0 2111 25 24 24 25 1791 0 1791 0 24 -25z m-60 -2550
c175 -31 336 -115 465 -245 345 -345 345 -895 0 -1240 -345 -345 -895 -345
-1240 0 -345 345 -345 895 0 1240 206 206 487 295 775 245z"/>
<path d="M1237 4229 c-9 -6 -37 -50 -62 -98 -48 -97 -42 -93 -163 -107 -80 -9
-112 -32 -112 -82 0 -32 9 -46 71 -108 l72 -72 -18 -97 c-17 -95 -17 -98 2
-124 39 -51 65 -51 164 2 l89 48 89 -48 c99 -53 125 -53 164 -2 19 26 19 29 2
124 l-18 97 72 72 c62 62 71 76 71 108 0 54 -30 72 -140 87 l-91 13 -44 89
c-25 48 -54 93 -64 99 -25 13 -61 12 -84 -1z m58 -279 c9 -30 45 -60 70 -60
33 0 37 -11 13 -38 -18 -18 -23 -35 -22 -72 l0 -49 -27 15 c-16 8 -37 14 -49
14 -12 0 -33 -6 -49 -14 l-27 -15 0 49 c1 37 -4 54 -22 72 -24 27 -20 38 13
38 25 0 61 30 70 60 3 11 10 20 15 20 5 0 12 -9 15 -20z"/>
<path d="M2197 4229 c-9 -6 -37 -50 -62 -98 -48 -97 -42 -93 -163 -107 -80 -9
-112 -32 -112 -82 0 -32 9 -46 71 -108 l72 -72 -18 -97 c-17 -95 -17 -98 2
-124 39 -51 65 -51 164 2 l89 48 89 -48 c99 -53 125 -53 164 -2 19 26 19 29 2
124 l-18 97 72 72 c62 62 71 76 71 108 0 54 -30 72 -140 87 l-91 13 -44 89
c-25 48 -54 93 -64 99 -25 13 -61 12 -84 -1z m58 -279 c9 -30 45 -60 70 -60
33 0 37 -11 13 -38 -18 -18 -23 -35 -22 -72 l0 -49 -27 15 c-16 8 -37 14 -49
14 -12 0 -33 -6 -49 -14 l-27 -15 0 49 c1 37 -4 54 -22 72 -24 27 -20 38 13
38 25 0 61 30 70 60 3 11 10 20 15 20 5 0 12 -9 15 -20z"/>
<path d="M3157 4229 c-9 -6 -37 -50 -62 -98 -48 -97 -42 -93 -163 -107 -80 -9
-112 -32 -112 -82 0 -32 9 -46 71 -108 l72 -72 -18 -97 c-17 -95 -17 -98 2
-124 39 -51 65 -51 164 2 l89 48 89 -48 c99 -53 125 -53 164 -2 19 26 19 29 2
124 l-18 97 72 72 c62 62 71 76 71 108 0 54 -30 72 -140 87 l-91 13 -44 89
c-25 48 -54 93 -64 99 -25 13 -61 12 -84 -1z m58 -279 c9 -30 45 -60 70 -60
33 0 37 -11 13 -38 -18 -18 -23 -35 -22 -72 l0 -49 -27 15 c-16 8 -37 14 -49
14 -12 0 -33 -6 -49 -14 l-27 -15 0 49 c1 37 -4 54 -22 72 -24 27 -20 38 13
38 25 0 61 30 70 60 3 11 10 20 15 20 5 0 12 -9 15 -20z"/>
<path d="M880 3267 c-49 -16 -133 -102 -148 -153 -28 -94 -8 -169 63 -239 102
-103 243 -101 338 5 90 100 90 220 0 320 -65 72 -158 97 -253 67z m135 -172
c50 -49 15 -135 -55 -135 -41 0 -80 39 -80 80 0 41 39 80 80 80 19 0 40 -9 55
-25z"/>
<path d="M1385 3255 c-16 -15 -25 -36 -25 -55 0 -19 9 -40 25 -55 l24 -25 751
0 751 0 24 25 c33 32 33 78 0 110 l-24 25 -751 0 -751 0 -24 -25z"/>
<path d="M3145 3255 c-16 -15 -25 -36 -25 -55 0 -19 9 -40 25 -55 l24 -25 271
0 271 0 24 25 c16 15 25 36 25 55 0 19 -9 40 -25 55 l-24 25 -271 0 -271 0
-24 -25z"/>
<path d="M1385 2935 c-16 -15 -25 -36 -25 -55 0 -19 9 -40 25 -55 l24 -25 351
0 351 0 24 25 c16 15 25 36 25 55 0 19 -9 40 -25 55 l-24 25 -351 0 -351 0
-24 -25z"/>
<path d="M2345 2935 c-16 -15 -25 -36 -25 -55 0 -19 9 -40 25 -55 l24 -25 671
0 671 0 24 25 c33 32 33 78 0 110 l-24 25 -671 0 -671 0 -24 -25z"/>
<path d="M880 2627 c-49 -16 -133 -102 -148 -153 -28 -94 -8 -169 63 -239 102
-103 243 -101 338 5 90 100 90 220 0 320 -65 72 -158 97 -253 67z m135 -172
c16 -15 25 -36 25 -55 0 -19 -9 -40 -25 -55 -15 -16 -36 -25 -55 -25 -19 0
-40 9 -55 25 -16 15 -25 36 -25 55 0 19 9 40 25 55 15 16 36 25 55 25 19 0 40
-9 55 -25z"/>
<path d="M1385 2615 c-16 -15 -25 -36 -25 -55 0 -19 9 -40 25 -55 l24 -25 751
0 751 0 24 25 c33 32 33 78 0 110 l-24 25 -751 0 -751 0 -24 -25z"/>
<path d="M3145 2615 c-16 -15 -25 -36 -25 -55 0 -19 9 -40 25 -55 l24 -25 271
0 271 0 24 25 c16 15 25 36 25 55 0 19 -9 40 -25 55 l-24 25 -271 0 -271 0
-24 -25z"/>
<path d="M1385 2295 c-16 -15 -25 -36 -25 -55 0 -19 9 -40 25 -55 l24 -25 751
0 751 0 24 25 c33 32 33 78 0 110 l-24 25 -751 0 -751 0 -24 -25z"/>
<path d="M880 1987 c-49 -16 -133 -102 -148 -153 -28 -94 -8 -169 63 -239 102
-103 243 -101 338 5 90 100 90 220 0 320 -65 72 -158 97 -253 67z m135 -172
c16 -15 25 -36 25 -55 0 -19 -9 -40 -25 -55 -15 -16 -36 -25 -55 -25 -19 0
-40 9 -55 25 -16 15 -25 36 -25 55 0 19 9 40 25 55 15 16 36 25 55 25 19 0 40
-9 55 -25z"/>
<path d="M1385 1975 c-16 -15 -25 -36 -25 -55 0 -19 9 -40 25 -55 l24 -25 591
0 591 0 24 25 c16 15 25 36 25 55 0 19 -9 40 -25 55 l-24 25 -591 0 -591 0
-24 -25z"/>
<path d="M1385 1655 c-16 -15 -25 -36 -25 -55 0 -19 9 -40 25 -55 24 -25 26
-25 215 -25 189 0 191 0 215 25 16 15 25 36 25 55 0 19 -9 40 -25 55 -24 25
-26 25 -215 25 -189 0 -191 0 -215 -25z"/>
<path d="M2025 1655 c-16 -15 -25 -36 -25 -55 0 -19 9 -40 25 -55 l24 -25 271
0 271 0 24 25 c16 15 25 36 25 55 0 19 -9 40 -25 55 l-24 25 -271 0 -271 0
-24 -25z"/>
<path d="M880 1347 c-49 -16 -133 -102 -148 -153 -28 -94 -8 -169 63 -239 102
-103 243 -101 338 5 90 100 90 220 0 320 -65 72 -158 97 -253 67z m135 -172
c16 -15 25 -36 25 -55 0 -19 -9 -40 -25 -55 -15 -16 -36 -25 -55 -25 -19 0
-40 9 -55 25 -16 15 -25 36 -25 55 0 19 9 40 25 55 15 16 36 25 55 25 19 0 40
-9 55 -25z"/>
<path d="M1385 1335 c-16 -15 -25 -36 -25 -55 0 -19 9 -40 25 -55 l24 -25 591
0 591 0 24 25 c16 15 25 36 25 55 0 19 -9 40 -25 55 l-24 25 -591 0 -591 0
-24 -25z"/>
<path d="M1385 1015 c-16 -15 -25 -36 -25 -55 0 -19 9 -40 25 -55 l24 -25 271
0 271 0 24 25 c16 15 25 36 25 55 0 19 -9 40 -25 55 l-24 25 -271 0 -271 0
-24 -25z"/>
<path d="M2185 1015 c-16 -15 -25 -36 -25 -55 0 -19 9 -40 25 -55 24 -25 26
-25 215 -25 189 0 191 0 215 25 16 15 25 36 25 55 0 19 -9 40 -25 55 -24 25
-26 25 -215 25 -189 0 -191 0 -215 -25z"/>
<path d="M3960 1375 l-265 -264 -126 124 c-141 140 -158 148 -210 96 -54 -54
-42 -75 148 -263 141 -140 152 -148 189 -148 37 0 48 9 341 303 274 273 303
305 303 335 0 44 -38 82 -82 82 -29 0 -59 -27 -298 -265z"/>
</g>
</svg>
